<svg width="114" height="137" viewBox="0 0 114 137" fill="none" xmlns="http://www.w3.org/2000/svg">
<path d="M53 53.5C53 49.9102 50.0899 47 46.5 47C42.9101 47 40 49.9101 40 53.5V124C40 131.18 45.8203 137 53 137V53.5Z" fill="#2B9C03"/>
<path d="M114 0H90C67.9086 0 50 17.9086 50 40V50H74C96.0914 50 114 32.0914 114 10V0Z" fill="#36C404"/>
<path d="M114 0H90C67.9086 0 50 17.9086 50 40V50H74C96.0914 50 114 32.0914 114 10V0Z" fill="black" fill-opacity="0.2"/>
<path d="M0.0644531 37.9893L6.85282 44.7776C20.5995 58.5244 42.8874 58.5243 56.6341 44.7776L49.8458 37.9892C36.099 24.2425 13.8112 24.2425 0.0644531 37.9893Z" fill="#36C404"/>
<path d="M0.0644531 37.9893L6.85282 44.7776C20.5995 58.5244 42.8874 58.5243 56.6341 44.7776L49.8458 37.9892C36.099 24.2425 13.8112 24.2425 0.0644531 37.9893Z" fill="black" fill-opacity="0.2"/>
<path d="M56.7631 44.4842C55.5674 41.2 58.1979 33.1916 78.2859 27.4316C98.3738 21.6716 101.722 13.4105 100.885 10M46.0016 46C46.8386 42.9684 45.1407 37.5874 31.6531 40.3158C18.1655 43.0442 13.5979 40.6947 13 39.1789" stroke="#FCFCFC" stroke-width="0.8"/>
</svg>
