<svg width="129" height="129" viewBox="0 0 129 129" fill="none" xmlns="http://www.w3.org/2000/svg">
<path d="M52.7148 2.04686C56.4834 1.34895 60.3917 1 64.3 1C99.265 1 127.6 29.3349 127.6 64.3C127.6 99.265 99.265 127.6 64.3 127.6C29.335 127.6 1 99.265 1 64.3C1 50.97 5.18743 38.5473 12.2363 28.3579" stroke="#306F54" stroke-width="2" stroke-linecap="round" stroke-linejoin="round"/>
<path d="M22.9844 16.4238C20.8442 18.2384 18.8435 20.1925 16.9824 22.2862" stroke="white" stroke-width="2" stroke-linecap="round" stroke-linejoin="round"/>
<path d="M64.2998 118.039C34.6388 118.039 10.6309 93.961 10.6309 64.3C10.6309 34.639 34.6388 10.6311 64.2998 10.6311C93.9607 10.6311 118.038 34.639 118.038 64.3C118.038 93.961 93.9607 118.039 64.2998 118.039Z" fill="#1A9035"/>
<path d="M87.5312 45.75H79.1562V40.5156C79.1562 38.206 77.2784 36.3281 74.9688 36.3281H54.0312C51.7216 36.3281 49.8438 38.206 49.8438 40.5156V45.75H41.4688C40.3106 45.75 39.375 46.6856 39.375 47.8438V49.9375C39.375 50.2254 39.6105 50.4609 39.8984 50.4609H43.8504L45.4665 84.6807C45.5712 86.9118 47.4163 88.6719 49.6475 88.6719H79.3525C81.5902 88.6719 83.4288 86.9184 83.5335 84.6807L85.1496 50.4609H89.1016C89.3895 50.4609 89.625 50.2254 89.625 49.9375V47.8438C89.625 46.6856 88.6894 45.75 87.5312 45.75ZM74.4453 45.75H54.5547V41.0391H74.4453V45.75Z" fill="white"/>
</svg>
