<svg width="729" height="549" viewBox="0 0 729 549" fill="none" xmlns="http://www.w3.org/2000/svg">
<path opacity="0.3" d="M673.447 465.947C671.301 493.098 650.213 513.583 626.351 511.696L324.561 487.839C323.146 487.727 321.745 487.538 320.357 487.274L136.457 472.736C114.626 471.01 98.5696 448.829 100.594 423.219L101.433 412.61C103.862 381.888 84.6309 355.321 58.4658 353.253C31.646 351.132 11.9242 323.88 14.4138 292.388C16.9035 260.895 40.6602 237.106 67.48 239.226L75.4266 239.854C101.592 241.923 124.783 218.684 127.209 187.987L127.211 187.962C129.236 162.351 148.555 142.967 170.386 144.693L222.739 148.832C210.347 138.625 202.874 120.225 204.483 99.8802C206.832 70.1598 227.725 47.5403 251.181 49.3946L549.134 72.9489C570.197 74.6141 585.552 97.6178 583.438 124.358C580.908 156.365 599.331 183.954 624.57 185.949L632.246 186.556C658.117 188.601 676.986 216.871 674.391 249.7C671.796 282.528 706.158 381.477 680.287 379.431C655.047 377.436 678.914 396.803 676.381 428.835L680.287 413.365C766.042 478.82 564.028 398.906 554.839 407.097L634.125 413.365C657.987 415.251 675.594 438.795 673.447 465.947Z" fill="#4DA78A" fill-opacity="0.43"/>
<path d="M669.72 508.549C667.554 528.886 605.221 545.131 497.883 537.79C390.424 530.45 279.355 548.26 146.867 540.919C14.379 533.579 48.7947 508.549 71.7786 497.599C74.2655 496.395 77.0332 495.232 80.0816 494.109C104.028 485.686 138.684 481.955 124.004 478.225C107.518 474.013 123.282 460.415 187.781 453.677C252.16 446.818 341.568 449.826 350.954 448.984C479.231 437.432 540.842 464.627 585.847 470.885C585.927 470.885 585.967 470.885 585.967 470.885C631.093 477.142 671.886 488.213 669.72 508.549V508.549Z" fill="#C17536"/>
<path d="M669.72 508.549C667.554 528.886 605.221 545.131 497.883 537.79C390.424 530.45 279.355 548.26 146.867 540.919C14.379 533.579 48.7947 508.549 71.7786 497.599C74.2655 496.395 77.0332 495.232 80.0816 494.109C77.7953 499.163 66.7245 516.973 83.812 520.583C104.269 524.794 123.883 516.852 130.502 519.981C137 523.23 137 531.172 156.013 531.172C174.905 531.172 185.495 526.84 189.345 526.359C193.196 525.877 195.362 530.691 207.034 532.255C218.707 533.819 228.213 524.915 233.628 525.396C239.043 525.877 242.653 528.525 251.438 532.255C260.222 535.985 271.895 528.525 278.393 529.608C285.011 530.691 301.738 532.736 312.688 533.338C323.638 533.819 347.585 521.064 369.486 524.794C391.387 528.525 486.812 527.923 533.381 526.359C580.071 524.794 583.681 510.956 551.672 505.06C519.543 499.283 482.48 494.47 510.157 493.989C537.834 493.387 538.556 496.034 588.855 499.765C639.155 503.495 661.658 495.553 642.765 490.258C623.752 484.843 639.877 486.528 609.192 477.503C602.213 475.337 594.03 473.051 585.967 470.885C631.093 477.142 671.886 488.213 669.72 508.549V508.549Z" fill="#AF5D20"/>
<path d="M669.72 514.311C667.554 534.647 605.221 550.892 497.883 543.552C390.424 536.212 279.355 554.021 146.867 546.681C14.379 539.34 48.7947 514.311 71.7786 503.36C74.2655 502.157 77.0332 500.994 80.0816 499.871C77.7953 504.925 66.7245 522.734 83.812 526.344C104.269 530.556 123.883 522.614 130.502 525.743C137 528.992 137 536.934 156.013 536.934C174.905 536.934 185.495 532.602 189.345 532.12C193.196 531.639 195.362 536.452 207.034 538.017C218.707 539.581 228.213 530.676 233.628 531.158C239.043 531.639 242.653 534.286 251.438 538.017C260.222 541.747 271.895 534.286 278.393 535.369C285.011 536.452 301.738 538.498 312.688 539.1C323.638 539.581 347.585 526.826 369.486 530.556C391.387 534.286 486.812 533.685 533.381 532.12C580.071 530.556 583.681 516.718 551.672 510.821C519.543 505.045 482.48 500.232 510.157 499.75C537.834 499.149 538.556 501.796 588.855 505.526C639.155 509.257 661.658 501.315 642.765 496.02C623.752 490.605 639.877 492.29 609.192 483.265C602.213 481.098 594.03 478.812 585.967 476.646C631.093 482.904 671.886 493.974 669.72 514.311V514.311Z" fill="#A4A4A4"/>
<path d="M357.331 462.581C357.692 463.664 357.091 464.868 356.008 465.349H355.887H355.767C355.526 465.429 355.246 465.55 354.925 465.71C354.082 466.071 352.999 466.673 351.796 467.395C349.269 468.839 345.9 471.246 342.771 474.735C338.078 480.03 332.663 481.354 330.016 482.677C329.053 483.038 328.572 483.399 328.451 483.64C328.331 483.76 328.211 483.881 328.211 484.121C327.97 485.204 327.85 486.167 327.609 487.13C327.368 488.213 326.887 489.175 326.165 490.258C324.841 492.424 322.555 494.47 318.463 497.478C316.057 499.163 314.372 500.126 313.169 500.727C311.845 501.329 311.123 501.57 310.762 501.931C310.521 502.051 310.281 502.172 309.92 502.653C309.559 503.375 308.837 504.458 307.874 506.383C305.949 510.234 304.264 513.002 302.098 515.288C299.932 517.574 297.405 519.259 293.915 521.184C287.658 524.674 283.687 528.765 283.205 529.247C282.363 530.089 281.039 530.209 280.197 529.367C279.355 528.645 279.234 527.201 280.077 526.359C280.197 526.238 284.529 521.545 291.87 517.454C295.239 515.529 297.405 514.085 299.09 512.28C300.774 510.595 302.218 508.188 304.144 504.458C305.227 502.172 305.949 500.848 306.791 499.765C307.633 498.802 308.716 498.08 309.559 497.599C310.281 497.358 310.882 497.117 311.604 496.756C312.687 496.155 314.011 495.433 315.936 493.989C318.945 491.823 320.75 490.258 321.833 489.055C322.795 487.852 323.156 487.13 323.517 486.047C323.638 485.325 323.878 484.482 323.999 483.399C324.119 482.557 324.48 481.715 325.082 481.113C325.563 480.391 326.165 479.91 326.766 479.549C327.97 478.827 329.294 478.345 330.738 477.744C333.505 476.54 336.634 475.217 339.642 471.847C346.501 464.146 354.323 461.378 354.564 461.258C355.647 460.897 356.85 461.498 357.331 462.581V462.581Z" fill="#935324"/>
<path d="M384.167 456.926C385.37 456.565 386.573 457.166 386.934 458.37C387.295 459.453 386.694 460.656 385.611 461.017C384.528 461.378 383.685 461.98 382.723 462.942C381.76 463.905 380.797 465.109 379.835 466.553C377.668 469.441 375.141 472.93 370.93 475.457C367.079 477.864 364.552 479.308 362.747 480.872C361.062 482.437 359.859 484.001 358.656 486.889C357.212 490.138 355.527 493.146 353.241 495.794C350.954 498.441 347.946 500.727 343.975 502.292C340.726 503.615 338.921 505.782 337.116 508.549C335.19 511.317 333.506 514.807 330.858 518.296C328.813 521.064 326.406 522.628 324.24 523.711C322.194 524.794 320.269 525.516 319.066 526.359C318.223 526.96 317.622 527.562 317.14 528.404C316.659 529.487 315.335 529.848 314.252 529.247C313.29 528.765 312.808 527.442 313.41 526.479C314.252 524.794 315.456 523.711 316.659 522.869C317.983 522.027 319.186 521.425 320.51 520.823C323.037 519.74 325.323 518.537 327.489 515.649C329.896 512.641 331.46 509.271 333.506 506.263C335.551 503.134 338.078 500.126 342.29 498.441C345.66 496.997 348.066 495.192 349.992 493.026C351.917 490.74 353.361 488.213 354.685 485.204C356.129 481.955 357.693 479.669 359.979 477.744C362.145 475.698 364.913 474.134 368.764 471.847C371.291 470.283 373.096 468.358 374.78 466.191C376.465 464.146 377.789 461.859 379.594 459.934C380.917 458.731 382.362 457.648 384.167 456.926V456.926Z" fill="#935324"/>
<path d="M423.395 455.121C423.395 456.324 422.432 457.287 421.229 457.287C419.544 457.287 417.017 458.129 414.61 460.054C412.203 462.1 409.797 465.109 408.112 469.441C407.149 471.968 406.066 473.893 404.622 475.578C403.299 477.142 401.734 478.345 400.29 479.308C397.162 481.233 394.153 482.316 391.506 484.242C390.303 485.204 389.46 486.167 388.738 487.37C388.016 488.574 387.415 489.897 386.813 491.462C385.489 494.35 384.286 497.839 381.398 500.727C378.991 503.014 375.862 504.338 372.734 505.661C369.605 506.985 366.476 508.188 364.07 509.512C362.545 510.475 361.462 511.517 360.821 512.641C359.738 514.566 359.016 517.213 358.294 519.861C357.451 522.628 356.609 525.516 354.804 527.923C353.601 529.487 351.916 530.931 349.63 531.774C348.547 532.135 347.343 531.533 346.982 530.45C346.501 529.367 347.103 528.164 348.186 527.803C349.63 527.201 350.592 526.479 351.435 525.396C352.277 524.313 352.879 522.869 353.36 521.305C354.443 518.056 355.165 514.085 357.09 510.595C357.933 509.031 359.136 507.827 360.46 506.865C361.904 505.902 363.348 505.06 364.912 504.338C368.041 502.894 371.29 501.81 374.057 500.487C375.862 499.644 377.427 498.682 378.389 497.719C379.954 496.155 380.916 494.229 381.879 492.063C382.842 489.897 383.684 487.491 385.128 485.084C386.091 483.64 387.294 482.076 389.099 480.872C391.386 479.067 393.792 477.984 395.958 476.901C398.004 475.698 399.809 474.615 401.373 472.81C402.456 471.607 403.419 470.042 404.141 467.876C406.066 462.942 408.834 459.212 411.963 456.805C414.971 454.278 418.22 452.955 421.229 452.955C422.432 452.955 423.395 453.917 423.395 455.121V455.121Z" fill="#935324"/>
<path d="M443.249 454.158C444.332 453.917 445.536 454.639 445.776 455.843C446.017 457.046 445.295 458.129 444.092 458.37C443.731 458.49 443.49 458.61 443.129 458.851C442.808 459.092 442.487 459.453 442.166 459.934C441.444 460.776 440.722 462.22 440.121 463.905C438.677 467.275 437.353 471.727 434.585 475.337C432.299 478.225 429.411 479.91 426.763 481.233C424.116 482.557 421.589 483.64 419.784 484.843C418.701 485.686 417.859 486.528 417.377 487.731C416.415 489.777 415.452 493.026 414.249 496.395C413.045 499.765 411.601 503.255 409.676 506.263C408.473 508.309 406.908 510.114 404.983 511.437C402.456 513.122 399.929 514.205 397.763 515.047C395.717 515.89 394.033 516.612 393.07 517.695C392.348 518.296 391.866 519.018 391.626 520.222C390.663 523.711 388.617 527.321 386.812 530.089C385.128 532.977 383.443 534.902 383.443 534.902C382.721 535.865 381.397 535.985 380.435 535.263C379.592 534.541 379.352 533.218 380.194 532.255L380.435 532.014C380.595 531.774 380.796 531.453 381.036 531.052C381.638 530.209 382.48 529.126 383.323 527.803C385.007 525.276 386.812 521.906 387.414 519.139C387.895 517.334 388.858 515.769 390.061 514.566C391.265 513.483 392.589 512.641 394.033 512.039C396.921 510.715 399.809 509.753 402.576 507.948C403.78 507.105 404.983 505.782 406.066 503.976C407.149 502.292 408.112 500.246 408.954 498.2C410.759 493.868 412.083 489.296 413.527 485.926C414.369 484.001 415.813 482.557 417.377 481.474C418.942 480.271 420.626 479.428 422.311 478.706C425.801 477.022 429.05 475.578 431.096 472.81C432.66 470.885 433.743 468.478 434.706 466.071C435.668 463.664 436.511 461.258 437.594 459.092C438.316 457.768 439.278 456.444 440.602 455.361C441.324 454.88 442.287 454.399 443.249 454.158V454.158Z" fill="#935324"/>
<path d="M223.881 464.386C224.001 465.349 223.039 466.432 221.595 466.793H221.474L221.234 466.913C220.993 466.994 220.632 467.114 220.151 467.274C219.188 467.515 217.864 467.996 216.18 468.598C212.81 469.922 208.237 472.088 203.665 475.096C196.685 479.789 189.947 480.872 186.577 482.076C185.374 482.437 184.652 482.677 184.411 482.918C184.291 483.038 184.171 483.159 184.05 483.399C183.569 484.242 183.088 485.084 182.486 486.047C181.884 486.889 181.042 487.852 179.959 488.814C177.793 490.619 174.664 492.424 169.008 495.072C165.759 496.516 163.473 497.358 161.909 497.96C160.224 498.441 159.261 498.682 158.78 498.922C158.539 499.043 158.178 499.283 157.697 499.644C156.975 500.246 155.892 501.209 154.207 502.893C150.838 506.263 148.191 508.67 144.942 510.715C141.813 512.641 138.443 514.205 133.75 515.89C125.568 518.898 119.671 522.628 119.19 522.989H119.07C117.987 523.711 116.422 523.832 115.58 523.11C114.858 522.388 115.099 521.184 116.302 520.462C116.422 520.342 122.92 516.13 132.427 512.641C136.999 510.956 139.767 509.632 142.294 508.068C144.821 506.504 147.108 504.578 150.357 501.209C152.282 499.283 153.606 498.08 154.809 497.117C156.133 496.155 157.577 495.553 158.66 495.192C159.502 494.951 160.224 494.711 161.307 494.35C162.631 493.868 164.436 493.267 167.083 492.063C171.174 490.138 173.701 488.814 175.266 487.731C176.83 486.648 177.432 485.926 178.033 485.084C178.515 484.362 178.876 483.64 179.478 482.677C179.839 481.955 180.561 481.233 181.283 480.632C182.005 480.15 182.847 479.669 183.689 479.308C185.374 478.706 186.938 478.225 188.743 477.744C192.353 476.661 196.445 475.457 200.777 472.569C211.005 465.83 220.873 463.303 221.113 463.303C222.437 462.942 223.761 463.424 223.881 464.386Z" fill="#935324"/>
<path d="M259.259 460.656C259.38 461.619 258.417 462.702 256.973 463.063C255.649 463.424 254.446 463.905 253.122 464.748C251.799 465.59 250.355 466.673 248.67 467.997C245.541 470.403 241.57 473.532 235.915 475.818C230.74 477.864 227.371 479.188 224.964 480.511C222.437 481.835 220.752 483.279 218.346 485.806C215.819 488.574 213.051 491.221 209.682 493.628C206.192 495.914 202.101 497.839 197.047 499.283C192.955 500.487 190.188 502.292 187.299 504.819C184.411 507.226 181.403 510.234 177.312 513.363C174.063 515.769 170.934 517.213 168.166 518.176C165.399 519.139 162.992 519.74 161.307 520.462C160.224 520.944 159.382 521.425 158.54 522.267C157.577 523.11 156.013 523.471 154.93 522.989C153.967 522.508 153.847 521.425 154.809 520.462C156.253 519.139 157.938 518.056 159.623 517.334C161.307 516.612 162.992 516.13 164.556 515.649C167.805 514.566 170.814 513.603 174.183 511.076C177.793 508.309 180.561 505.421 183.81 502.773C187.059 500.005 190.91 497.358 196.204 495.914C200.536 494.59 203.906 493.026 206.794 491.101C209.561 489.175 211.968 486.889 214.375 484.242C216.902 481.474 219.429 479.428 222.557 477.744C225.686 476.059 229.296 474.615 234.35 472.569C237.84 471.246 240.487 469.441 243.014 467.636C245.541 465.71 247.828 463.785 250.475 462.1C252.28 461.017 254.326 460.054 256.612 459.573C257.936 459.212 259.259 459.693 259.259 460.656V460.656Z" fill="#935324"/>
<path d="M302.34 457.888C301.979 458.971 300.655 459.814 299.211 459.814C297.285 459.693 294.157 460.536 290.787 462.22C287.418 463.905 283.808 466.673 280.679 470.403C278.874 472.69 276.829 474.374 274.783 475.818C272.858 477.262 270.692 478.225 268.646 479.067C264.555 480.752 260.704 481.835 257.214 483.52C255.529 484.242 254.206 485.204 253.002 486.167C251.799 487.25 250.716 488.453 249.633 489.777C247.347 492.304 244.94 495.312 240.728 497.96C237.359 499.885 233.388 501.088 229.297 502.292C225.326 503.375 221.354 504.458 218.226 505.661C216.18 506.504 214.616 507.466 213.533 508.309C211.728 510.114 210.163 512.4 208.479 514.807C206.794 517.093 204.989 519.62 202.221 521.786C200.296 523.23 197.889 524.433 195.122 525.155C193.798 525.516 192.474 525.035 192.354 524.072C192.234 523.11 193.196 522.027 194.64 521.666C196.445 521.184 197.769 520.462 198.972 519.5C200.176 518.657 201.379 517.334 202.462 516.01C204.628 513.122 206.553 509.632 209.923 506.504C211.246 505.18 213.051 504.217 214.856 503.255C216.661 502.412 218.587 501.69 220.632 501.088C224.603 499.885 228.815 498.802 232.305 497.719C234.712 496.997 236.637 496.155 238.081 495.312C240.367 493.868 242.052 492.184 243.857 490.258C245.542 488.333 247.226 486.287 249.513 484.242C251.077 482.918 253.002 481.594 255.289 480.511C258.538 478.947 261.666 477.984 264.434 477.022C267.202 475.939 269.609 474.976 271.895 473.412C273.459 472.329 274.903 471.005 276.468 469.08C280.078 464.747 284.41 461.498 288.621 459.332C292.953 457.166 297.045 456.083 300.534 456.083C301.858 456.083 302.701 456.805 302.34 457.888V457.888Z" fill="#935324"/>
<path d="M327.97 458.49C327.97 459.573 326.767 460.536 325.323 460.776C324.962 460.776 324.48 460.897 324.119 461.137C323.638 461.378 323.157 461.699 322.675 462.1C321.592 462.942 320.389 464.146 319.065 465.59C316.538 468.598 313.65 472.449 309.439 475.698C306.069 478.225 302.219 479.669 298.729 480.872C295.239 481.955 291.99 482.918 289.704 484.001C288.139 484.723 286.936 485.445 286.094 486.528C284.289 488.333 282.243 491.101 279.836 494.109C277.55 496.997 274.782 500.126 271.774 502.773C269.728 504.578 267.562 506.143 264.915 507.346C261.546 508.79 258.297 509.753 255.529 510.475C252.881 511.197 250.715 511.919 249.271 512.761C248.309 513.363 247.587 513.964 246.865 515.047C244.819 518.176 241.45 521.305 238.562 523.711C235.674 526.238 233.267 527.923 233.267 527.923C232.064 528.765 230.499 528.886 229.657 528.284C228.815 527.562 229.055 526.479 230.138 525.637L230.259 525.516L230.499 525.396C230.74 525.155 231.101 524.875 231.582 524.554C232.545 523.832 233.748 522.869 235.072 521.666C237.84 519.379 240.848 516.491 242.412 514.085C243.495 512.52 245.06 511.076 246.744 510.114C248.429 509.031 250.234 508.429 252.039 507.827C255.649 506.744 259.38 505.902 263.23 504.217C264.795 503.495 266.6 502.292 268.284 500.848C269.969 499.283 271.654 497.599 273.338 495.673C276.587 491.943 279.475 487.852 282.002 484.964C283.567 483.279 285.733 481.955 287.778 480.993C289.944 480.03 292.231 479.308 294.397 478.586C298.849 477.142 303.061 475.818 306.19 473.412C308.476 471.727 310.401 469.681 312.206 467.515C314.011 465.47 315.696 463.303 317.621 461.378C318.945 460.175 320.389 458.971 322.194 458.129C323.157 457.648 324.36 457.287 325.563 457.046C326.887 456.926 327.97 457.527 327.97 458.49V458.49Z" fill="#935324"/>
<path d="M472.252 467.636C472.252 467.636 458.895 466.312 458.173 456.805C457.33 447.419 472.492 456.805 472.252 467.636Z" fill="#306F54"/>
<path d="M461.422 456.926C461.422 456.926 467.8 461.739 472.252 467.636C472.252 467.636 469.725 459.934 461.422 456.926Z" fill="#59A780"/>
<path d="M472.251 467.636C472.251 467.636 484.164 466.432 484.886 457.888C485.608 449.345 472.011 457.888 472.251 467.636Z" fill="#306F54"/>
<path d="M481.879 458.009C481.879 458.009 476.223 462.341 472.252 467.636C472.252 467.636 474.418 460.656 481.879 458.009Z" fill="#59A780"/>
<path d="M457.452 488.453C457.452 488.453 444.215 487.009 443.373 477.623C442.651 468.117 457.813 477.623 457.452 488.453Z" fill="#306F54"/>
<path d="M446.742 477.623C446.742 477.623 453.12 482.557 457.452 488.453C457.452 488.453 455.045 480.632 446.742 477.623Z" fill="#59A780"/>
<path d="M457.452 488.453C457.452 488.453 469.486 487.25 470.208 478.706C470.93 470.163 457.212 478.706 457.452 488.453Z" fill="#306F54"/>
<path d="M467.2 478.706C467.2 478.706 461.424 483.159 457.453 488.453C457.453 488.453 459.739 481.474 467.2 478.706Z" fill="#59A780"/>
<path d="M442.769 509.151C442.769 509.151 429.532 507.827 428.69 498.321C427.848 488.814 443.01 498.321 442.769 509.151Z" fill="#306F54"/>
<path d="M432.059 498.441C432.059 498.441 438.316 503.254 442.768 509.151C442.768 509.151 440.362 501.449 432.059 498.441Z" fill="#59A780"/>
<path d="M442.769 509.151C442.769 509.151 454.682 507.947 455.404 499.404C456.126 490.86 442.528 499.404 442.769 509.151Z" fill="#306F54"/>
<path d="M452.517 499.524C452.517 499.524 446.741 503.856 442.77 509.151C442.77 509.151 444.936 502.171 452.517 499.524Z" fill="#59A780"/>
<path d="M428.09 529.848C428.09 529.848 414.853 528.525 414.01 519.018C413.168 509.632 428.33 519.018 428.09 529.848Z" fill="#306F54"/>
<path d="M417.38 519.139C417.26 519.139 423.637 524.072 428.09 529.848C428.09 529.848 425.683 522.147 417.26 519.139H417.38Z" fill="#59A780"/>
<path d="M428.089 529.848C428.089 529.848 440.002 528.645 440.724 520.101C441.446 511.678 427.848 520.101 428.089 529.848Z" fill="#306F54"/>
<path d="M437.717 520.222C437.717 520.222 432.061 524.554 428.09 529.848C428.09 529.848 430.256 522.869 437.717 520.222Z" fill="#59A780"/>
<path d="M485.608 162.708C484.645 165.677 483.723 168.284 482.84 170.53C478.99 180.277 475.62 183.406 475.62 183.406L461.782 169.206C461.782 169.206 453.118 171.733 449.989 168.725C446.86 165.837 441.566 155.127 444.815 148.99C448.064 142.853 457.57 131.782 461.301 133.828C462.504 134.55 464.55 137.077 466.716 140.085C471.048 145.862 475.741 153.563 475.741 153.563L485.608 162.708Z" fill="#E59973"/>
<path d="M696.314 82.2046C677.301 102.902 650.226 103.624 650.226 103.624C650.226 103.624 649.263 100.375 647.94 95.4414C645.172 84.9723 640.359 66.9221 637.35 55.2497C632.898 38.0419 635.064 33.3488 639.877 29.6185C652.031 20.2324 680.43 58.8597 691.621 75.2252C694.63 79.4369 696.314 82.2046 696.314 82.2046V82.2046Z" fill="#706C6C"/>
<path d="M696.314 82.2046C677.301 102.902 650.226 103.624 650.226 103.624C650.226 103.624 649.263 100.375 647.939 95.4414C658.77 93.155 679.467 87.9807 691.621 75.2252C694.629 79.4369 696.314 82.2046 696.314 82.2046Z" fill="#A5A5A5"/>
<path d="M373.577 193.514L639.997 33.8301C642.283 32.5065 645.292 33.1081 646.856 35.2742C648.541 37.6808 647.819 41.0502 645.292 42.6146L379.473 203.261C376.585 204.946 372.855 203.863 371.411 200.734C370.207 198.207 371.17 194.958 373.577 193.514V193.514Z" fill="#6B3910"/>
<path d="M485.607 162.708C484.645 165.677 483.722 168.284 482.84 170.53C479.23 166.679 474.296 161.385 472.732 158.858C470.927 155.849 468.159 145.5 466.715 140.085C471.047 145.862 475.74 153.563 475.74 153.563L485.607 162.708Z" fill="#FFB78F"/>
<path d="M440.964 145.862C440.964 141.77 446.38 140.085 446.38 140.085C446.981 133.587 452.878 134.911 452.878 134.911C454.442 130.82 459.496 131.903 460.338 133.587C461.181 135.392 458.894 138.04 460.699 142.372C462.625 146.584 463.708 149.472 461.662 151.036C459.616 152.721 456.969 150.675 456.969 150.675C456.969 150.675 457.571 153.082 455.645 155.127C453.6 157.293 451.434 155.368 451.434 155.368C451.434 155.368 452.156 157.414 450.23 159.098C448.305 160.783 446.741 159.219 446.741 159.219C446.5 161.986 444.454 161.866 443.251 161.385C442.047 161.024 440.724 158.978 439.039 155.248C437.354 151.638 438.678 148.75 438.919 148.268L440.964 145.862Z" fill="#FFB78F"/>
<path d="M475.26 157.293C475.26 157.374 475.22 157.494 475.139 157.654C473.695 160.061 467.679 165.235 463.708 162.588C462.023 161.505 461.662 159.098 462.023 156.451C462.143 154.285 462.865 151.999 463.347 150.194C463.828 148.75 464.189 147.787 464.189 147.787C464.189 147.787 456.247 151.397 452.757 149.953C451.433 149.472 451.193 147.787 452.276 146.945C452.877 146.463 453.72 145.741 454.682 144.899C457.33 142.853 460.579 140.446 462.504 139.845C465.874 139.002 471.048 140.446 474.417 142.131C477.787 143.696 476.102 155.248 475.26 157.293V157.293Z" fill="#FFB78F"/>
<path d="M464.189 147.787C464.189 147.787 456.247 151.397 452.757 149.953C451.433 149.472 451.193 147.787 452.276 146.945C452.877 146.463 453.72 145.741 454.682 144.899C454.562 146.102 454.682 149.111 458.894 147.065C463.828 144.658 466.957 144.899 466.957 144.899C466.957 144.899 465.031 147.065 463.347 150.194C463.828 148.75 464.189 147.787 464.189 147.787V147.787Z" fill="#E59973"/>
<path d="M475.14 157.654C473.696 160.061 467.679 165.235 463.708 162.588C462.024 161.505 461.663 159.098 462.024 156.451C463.588 159.459 470.567 160.181 475.14 157.654Z" fill="#E59973"/>
<path d="M540.962 167.281C532.9 183.285 521.709 219.506 510.157 218.543C498.605 217.581 470.206 181.36 470.206 181.36C469.965 176.065 471.409 171.974 473.455 169.086C478.509 161.866 487.414 160.783 487.414 160.783L504.14 174.742C504.14 174.742 511.721 159.219 517.016 138.882C522.431 118.666 530.373 112.529 530.373 112.529L532.9 113.853L534.224 114.575C544.332 121.915 549.025 151.156 540.962 167.281V167.281Z" fill="#D8C7BA"/>
<path d="M540.962 167.281C532.9 183.285 521.709 219.506 510.157 218.543C498.605 217.581 470.206 181.36 470.206 181.36C469.965 176.065 471.409 171.974 473.455 169.086C480.073 174.982 496.679 189.663 503.177 194.477C511.36 200.493 522.431 174.02 522.431 174.02C522.431 174.02 511.721 183.165 509.555 183.646C507.269 184.128 520.385 154.646 525.8 135.874C527.846 128.654 529.892 120.591 532.9 113.853L534.224 114.575C544.332 121.915 549.025 151.156 540.962 167.281V167.281Z" fill="#C4B2A5"/>
<path d="M551.31 463.665C555.281 478.706 554.92 493.869 554.92 493.869C554.92 493.869 474.417 498.201 473.574 496.636C473.093 495.433 472.611 490.86 475.74 487.491C476.944 486.167 478.628 484.964 481.155 484.242C489.699 481.955 520.625 468.237 522.671 462.822C522.751 462.662 522.791 462.541 522.791 462.461C523.633 457.287 525.559 423.593 525.559 422.029L556.846 421.187L551.31 463.665Z" fill="#DD890E"/>
<path d="M519.662 474.134C510.878 480.752 491.504 487.972 482.84 487.732C479.471 487.732 477.184 487.611 475.74 487.491C476.944 486.167 478.628 484.964 481.155 484.242C489.699 481.955 520.625 468.237 522.671 462.822L522.911 463.063C522.911 463.063 528.326 467.395 519.662 474.134Z" fill="#EDA024"/>
<path d="M585.005 234.428L584.764 236.473L577.183 290.263C577.183 290.263 570.083 347.662 568.88 377.024C567.677 406.385 569.482 409.394 560.457 424.436C551.431 439.357 524.477 432.137 518.58 423.232C516.414 420.104 515.812 416.614 515.812 411.921C515.812 402.896 518.58 390.02 519.784 368.721C520.987 346.098 526.041 289.18 528.327 256.328C529.41 242.249 529.892 232.623 529.29 232.141L583.44 234.428H585.005Z" fill="#25596E"/>
<g style="mix-blend-mode:multiply" opacity="0.5">
<path d="M525.439 354.882C525.439 354.882 532.298 357.65 540.841 357.289C549.505 356.928 535.787 371.729 531.696 373.775C527.484 375.821 518.941 351.152 525.439 354.882Z" fill="#2F6C7F"/>
</g>
<g style="mix-blend-mode:multiply" opacity="0.5">
<path d="M584.764 236.473L577.183 290.263C577.183 290.263 570.083 347.662 568.88 377.024C567.677 406.385 569.482 409.394 560.457 424.436C551.431 439.357 524.477 432.137 518.58 423.232C516.414 420.104 515.812 416.614 515.812 411.921C549.626 413.485 556.967 397.24 556.004 361.14C555.162 330.093 562.141 311.682 563.104 309.276C563.024 309.516 562.863 309.837 562.623 310.238C559.614 316.375 539.518 347.181 544.211 320.948C548.784 294.715 572.971 272.092 556.486 268.001C545.415 265.233 534.464 259.698 528.327 256.328C529.41 242.249 529.892 232.623 529.29 232.141L583.44 234.428C583.842 235.15 584.283 235.831 584.764 236.473V236.473Z" fill="#2F6C7F"/>
</g>
<path d="M655.277 417.216C657.203 428.768 659.248 478.706 659.248 478.706C659.248 478.706 670.68 505.3 670.68 507.707C670.68 510.114 665.626 517.574 656.481 518.778C647.335 519.981 632.655 517.213 631.451 508.91C630.248 500.607 635.061 479.188 635.061 479.188L622.787 423.593C622.787 423.593 653.232 405.784 655.277 417.216V417.216Z" fill="#DD890E"/>
<path d="M657.323 481.474C659.128 484.483 664.182 494.47 661.896 499.765C659.73 505.06 640.356 509.031 639.875 502.653C639.273 496.396 638.912 480.03 638.912 480.03C653.834 481.835 655.398 478.345 657.323 481.474V481.474Z" fill="#EDA024"/>
<path d="M658.166 412.402V412.643C657.925 438.154 631.692 434.544 621.584 429.249C611.356 423.834 604.858 386.049 597.036 353.679C589.455 322.272 565.388 239.602 564.666 237.436L618.576 227.328C618.576 227.328 620.501 232.502 623.028 239.843C624.232 243.212 625.435 247.063 626.759 250.913C630.008 260.901 633.377 271.731 634.821 278.59C635.062 279.794 635.222 280.877 635.302 281.839C637.107 294.956 658.166 386.651 658.166 412.402V412.402Z" fill="#25596E"/>
<g style="mix-blend-mode:multiply" opacity="0.5">
<path d="M634.82 278.59C632.774 278.47 631.09 278.35 631.09 278.35C631.09 278.35 629.646 280.034 629.164 281.238C628.683 282.441 623.749 282.802 622.185 281.719C620.62 280.756 619.898 274.499 619.898 274.499C619.898 274.499 615.807 273.536 616.649 269.686C617.371 266.437 624.952 253.801 626.757 250.913C630.007 260.901 633.376 271.731 634.82 278.59V278.59Z" fill="#2F6C7F"/>
</g>
<g style="mix-blend-mode:multiply" opacity="0.5">
<path d="M658.166 412.643C657.925 438.154 631.692 434.544 621.584 429.249C611.356 423.834 604.858 386.049 597.036 353.679C589.455 322.272 565.388 239.602 564.666 237.436L618.576 227.328C618.576 227.328 620.501 232.502 623.028 239.843C616.53 244.536 605.098 251.034 588.492 254.162C561.176 259.217 603.654 307.952 610.152 320.346C616.65 332.621 614.605 327.205 599.202 316.857C583.799 306.628 614.244 358.733 617.011 365.833C619.779 373.053 610.513 364.87 608.468 363.787C606.422 362.824 613.642 389.9 635.904 383.041C658.166 376.182 645.531 392.306 634.099 395.676C625.074 398.443 643.605 418.299 658.166 412.643V412.643Z" fill="#2F6C7F"/>
</g>
<path d="M620.382 237.075C614.365 241.287 544.812 244.776 531.214 239.241C517.496 233.706 526.04 195.199 525.679 173.057C525.198 150.916 525.679 129.977 530.372 112.529C530.372 112.529 557.688 91.9517 571.286 88.5823C585.004 85.213 619.058 107.355 621.225 109.521C621.465 109.761 621.826 111.807 622.067 114.936C623.511 131.301 624.474 179.916 625.677 202.539C625.918 206.63 626.038 209.879 626.279 211.925C628.084 227.689 626.279 232.743 620.382 237.075V237.075Z" fill="#D8C7BA"/>
<path d="M565.872 223.598C536.39 222.274 526.161 181.721 533.983 185.572C541.925 189.302 553.237 200.975 572.49 192.07C591.623 183.165 599.926 161.866 599.926 161.866C614.607 139.604 595.474 224.921 565.872 223.598Z" fill="#C4B2A5"/>
<path d="M625.677 202.539C620.984 194.958 616.532 186.174 613.403 176.667C603.415 146.102 611.839 114.575 617.494 113.853C618.216 113.853 619.781 114.214 622.067 114.936C623.511 131.301 624.474 179.916 625.677 202.539Z" fill="#C4B2A5"/>
<path d="M656.483 225.523L654.678 235.15L652.993 244.054C651.79 252.718 651.67 267.279 650.827 269.686C650.747 269.846 650.707 269.966 650.707 270.047C649.624 271.25 646.856 271.13 646.856 271.13C646.856 271.13 645.171 273.416 643.727 273.897C642.283 274.499 639.997 273.536 639.997 273.536C639.997 273.536 637.711 275.702 635.906 275.462C634.101 275.341 631.092 272.092 631.092 272.092C631.092 272.092 630.25 273.897 629.047 274.98C627.723 276.063 623.511 275.341 622.308 274.258C621.105 273.296 622.549 267.64 622.91 266.677C622.91 266.597 622.91 266.517 622.91 266.437L618.698 263.91C618.698 263.91 618.217 260.059 618.818 255.967C619.179 254.283 619.661 252.598 620.383 251.154C622.91 245.98 635.665 240.926 635.665 240.926L637.711 231.78L639.997 221.311L656.483 225.523Z" fill="#FFB78F"/>
<path d="M624.594 257.652C624.474 258.615 622.91 265.955 622.91 266.437L618.698 263.91C618.698 263.91 618.217 260.059 618.818 255.967C619.42 257.652 620.262 259.939 621.466 260.661C623.15 261.744 624.354 258.254 624.594 257.652V257.652Z" fill="#E59973"/>
<path d="M650.827 269.686C650.746 269.846 650.706 269.966 650.706 270.047C649.623 271.25 646.856 271.13 646.856 271.13C646.856 271.13 645.171 273.416 643.727 273.897C642.283 274.499 639.997 273.536 639.997 273.536C639.997 273.536 637.71 275.702 635.905 275.462C634.1 275.341 631.092 272.092 631.092 272.092L632.295 269.084C632.295 269.084 635.785 271.25 638.071 270.769C640.237 270.408 641.561 269.445 641.561 269.445C641.561 269.445 644.569 271.13 646.976 269.325C646.976 269.325 649.022 270.047 650.827 269.686V269.686Z" fill="#E59973"/>
<path d="M656.483 225.523L654.678 235.15C648.18 235.27 641.321 233.104 637.711 231.78L639.997 221.311L656.483 225.523Z" fill="#E59973"/>
<path d="M659.131 227.208C646.736 235.39 632.777 224.681 632.777 224.681L633.138 221.552L637.831 187.979C637.831 187.979 633.138 183.286 626.881 175.343C622.79 170.169 617.976 163.551 613.524 155.97C602.453 137.197 616.532 106.632 621.225 109.521C630.13 115.056 668.156 170.53 668.517 177.389C668.998 184.128 659.131 227.208 659.131 227.208V227.208Z" fill="#D8C7BA"/>
<path d="M654.678 188.34C661.176 185.692 655.039 196.041 646.736 197.365C640.719 198.448 635.425 213.61 633.138 221.552L637.831 187.979C637.831 187.979 633.138 183.286 626.881 175.343C630.01 177.75 633.62 180.157 636.869 181.24C644.329 183.767 651.068 183.045 656.483 180.397C662.019 177.87 660.093 185.692 650.105 186.775C640.118 187.738 648.3 190.867 654.678 188.34V188.34Z" fill="#C4B2A5"/>
<path d="M549.024 99.6531C542.766 143.695 548.181 243.453 548.181 243.453L539.156 242.61C535.546 169.327 541.443 104.587 541.443 104.587L549.024 99.6531Z" fill="#25596E"/>
<path d="M606.183 98.6904C599.805 142.733 604.378 241.527 604.378 241.527L595.353 242.61C587.411 153.202 598.481 94.3584 598.481 94.3584L606.183 98.6904Z" fill="#25596E"/>
<path d="M582.838 93.9974C582.838 93.9974 573.813 107.114 567.315 106.512C560.697 105.79 560.697 97.9684 560.697 97.9684C560.777 96.6849 560.817 95.4815 560.817 94.3584C560.937 85.935 559.373 81.3623 559.373 81.3623C567.435 70.1712 583.801 66.9221 583.801 66.9221C583.32 70.7729 582.959 74.3829 582.718 77.5116C581.996 87.8603 582.838 93.9974 582.838 93.9974V93.9974Z" fill="#FFB78F"/>
<path d="M583.801 66.9221C583.32 70.7729 582.959 74.3829 582.718 77.5116C580.311 84.6113 574.535 92.433 560.817 94.3584C560.937 85.935 559.373 81.3623 559.373 81.3623C567.435 70.1712 583.801 66.9221 583.801 66.9221V66.9221Z" fill="#E59973"/>
<path d="M545.896 20.3527C545.896 20.3527 549.988 12.531 552.756 5.19059C552.756 5.19059 562.503 -5.51917 583.441 4.22792C604.379 13.975 603.176 29.9795 603.176 29.9795C603.176 29.9795 597.4 37.6809 594.271 46.4653C594.271 46.4653 562.623 43.0959 545.896 20.3527V20.3527Z" fill="#FFB03E"/>
<path d="M555.162 15.058C579.47 15.058 606.906 35.3945 601.972 52.2413C597.038 68.9678 575.138 49.8346 560.216 44.7806C545.415 39.8469 523.153 35.3945 527.605 24.5644C527.605 24.5644 530.854 15.058 555.162 15.058V15.058Z" fill="#EDA024"/>
<path d="M583.561 52.0007C582.117 68.1255 579.951 83.0469 564.067 84.2503C548.303 85.3333 543.249 79.9182 543.73 68.6068C544.211 60.7851 542.527 53.8057 541.564 47.9093C541.083 45.2619 540.842 42.8553 540.962 40.6892C541.203 33.3488 545.896 28.0541 556.726 27.4524C562.141 27.0914 567.195 28.0541 571.527 30.2201C579.349 33.9505 584.523 41.5316 583.561 52.0007V52.0007Z" fill="#FFB78F"/>
<path d="M571.527 30.2201C571.367 31.8246 570.885 33.5093 570.083 35.2742C562.984 51.5193 545.776 48.872 541.564 47.9093C541.083 45.2619 540.842 42.8553 540.962 40.6892C541.203 33.3488 545.896 28.0541 556.726 27.4524C562.141 27.0914 567.195 28.0541 571.527 30.2201V30.2201Z" fill="#E59973"/>
<path fill-rule="evenodd" clip-rule="evenodd" d="M591.023 43.3366C591.023 43.3366 590.541 58.4987 582.599 66.8018C582.599 66.8018 582.72 77.7522 575.139 84.2503C573.334 85.8146 571.168 87.018 568.52 87.8603C566.836 88.4219 564.91 88.7829 562.744 88.9433C545.657 90.0264 538.316 86.296 539.76 77.0302C540.001 75.506 540.522 73.8213 541.325 71.9762C541.445 71.4949 542.769 67.5238 546.619 65.8391C550.47 64.0341 552.636 64.2748 552.636 64.2748C552.636 64.2748 555.524 63.7935 559.495 65.5985C563.587 67.4035 567.678 70.6525 567.678 70.6525C567.678 70.6525 576.703 68.6068 579.711 61.3868L579.832 60.4241L580.193 55.9717C580.193 55.9717 578.027 54.0464 576.101 51.8804C575.018 50.677 573.935 49.4737 573.334 48.511C571.288 45.623 570.566 35.0335 570.566 35.0335C570.566 35.0335 566.354 43.6976 554.2 44.7806C542.047 45.8636 533.022 46.2246 533.744 33.4692C533.744 33.1483 533.744 32.8675 533.744 32.6268C535.428 20.5934 558.893 18.6681 565.993 26.2491C565.993 26.2491 566.033 26.2491 566.114 26.2491C567.076 26.3695 582.96 29.9795 591.023 43.3366V43.3366ZM548.545 77.6319C551.914 78.3539 551.914 74.5032 551.914 74.5032L554.561 74.3829C554.561 74.3829 553.599 78.2336 559.495 78.3539C563.707 78.4743 565.271 75.3456 563.586 73.1795C562.864 72.2169 561.42 71.4949 559.375 71.2542C553.117 70.6525 552.636 67.8848 552.636 67.8848C552.636 67.8848 551.192 71.2542 546.258 72.2169C546.258 72.2169 545.175 76.7896 548.545 77.6319V77.6319Z" fill="#B2AFAD"/>
<path d="M572.37 82.9266C572.37 82.9266 570.685 85.574 568.519 87.8603C566.835 88.4219 564.909 88.7829 562.743 88.9433C545.656 90.0263 538.316 86.296 539.76 77.0302C540 78.8352 540.602 81.8436 541.805 83.0469C543.49 84.7316 545.656 84.7316 546.017 84.7316C545.897 84.7316 545.656 84.4909 545.536 82.4453C545.536 82.4453 546.859 84.7316 551.191 85.8146C551.191 85.8146 550.108 84.0096 550.229 81.1216C550.229 81.1216 552.756 84.4909 556.967 86.0553L556.606 83.4079C556.606 83.4079 558.171 85.574 561.179 86.296C564.187 86.8976 567.677 83.7689 567.918 83.5283C567.918 83.7689 567.797 84.7316 566.714 85.935C566.714 85.935 568.64 85.6943 572.37 82.9266V82.9266Z" fill="#999796"/>
<path d="M566.353 74.8642C566.353 74.8642 565.27 73.7812 563.585 73.1795C562.863 72.2168 561.419 71.4948 559.373 71.2542C553.116 70.6525 552.634 67.8848 552.634 67.8848C552.634 67.8848 551.19 71.2542 546.257 72.2168C546.257 72.2168 545.655 72.5779 543.609 71.4948C543.609 71.4948 545.053 71.6152 546.979 70.0508L546.497 70.7728C546.497 70.7728 550.829 69.3288 551.912 66.0798L552.273 67.0425L552.514 65.3578C552.514 65.3578 554.319 68.8475 558.531 69.0882C558.531 69.0882 557.929 69.3288 556.966 69.3288C556.966 69.3288 559.855 69.9305 562.863 70.8932C565.871 71.7355 566.353 74.8642 566.353 74.8642V74.8642Z" fill="#999796"/>
<path d="M591.023 43.3366C591.023 43.3366 590.541 58.4987 582.599 66.8018C582.599 66.8018 582.719 77.7522 575.138 84.2503C577.786 80.0386 578.508 75.5862 578.508 75.5862C576.462 77.9929 574.176 79.4369 573.574 79.7979C573.935 79.5573 574.898 78.5946 576.703 76.0676C578.989 72.9389 579.952 67.2831 579.952 67.2831L578.628 68.2458C579.711 65.7188 579.952 62.8308 579.831 60.4241C579.711 58.0174 579.35 56.3327 579.35 56.3327C578.026 54.7684 576.943 53.3244 576.101 51.8803C572.732 46.4653 572.371 41.6519 572.371 41.6519C575.018 46.8263 579.831 50.5567 579.831 50.5567C575.138 44.6603 573.454 36.1165 573.454 36.1165C577.304 45.0213 583.08 48.511 583.08 48.511C579.952 44.4196 578.267 38.7639 578.267 38.7639C580.914 41.6519 584.885 45.5026 585.367 45.984C585.367 45.623 584.524 43.8179 581.275 38.5232C577.786 32.9878 566.715 26.6101 566.113 26.2491C567.076 26.3694 582.96 29.9795 591.023 43.3366V43.3366Z" fill="#999796"/>
<path d="M570.566 35.0335C570.566 35.0335 566.354 43.6976 554.2 44.7806C542.047 45.8636 533.022 46.2246 533.744 33.4692C533.744 33.1483 533.744 32.8675 533.744 32.6268C534.827 35.1538 536.632 38.6435 539.399 40.2079C544.333 42.8552 554.682 39.1249 557.209 31.9048C557.209 31.9048 556.968 38.5232 551.914 41.4112C551.914 41.4112 562.022 39.9672 565.031 30.9421C565.031 30.9421 565.512 36.3572 560.939 39.9672C560.939 39.9672 568.52 38.0419 571.047 29.7388C571.047 29.7388 571.288 31.3031 570.566 35.0335Z" fill="#999796"/>
<path d="M580.794 59.8224C580.914 55.009 585.968 51.76 590.18 53.926C590.26 53.926 590.34 53.9661 590.421 54.0463C596.437 57.0547 590.06 71.4948 579.711 68.2458L580.794 59.8224Z" fill="#FFB78F"/>
<path d="M588.133 56.3327C591.022 56.5733 592.466 59.702 587.772 63.1917C583.2 66.6814 582.357 64.1544 582.357 64.1544C582.357 64.1544 584.283 62.9511 584.403 61.2664C584.403 59.4614 584.884 58.0173 584.884 58.0173C584.884 58.0173 585.245 55.9717 588.133 56.3327V56.3327Z" fill="#E89C77"/>
<path d="M584.884 59.1003C584.884 59.1003 585.606 59.5817 585.245 61.146C584.884 63.0714 581.996 64.8764 581.996 64.8764C581.996 64.8764 582.718 63.7934 583.801 61.9884C584.764 60.063 583.681 59.1003 583.681 59.1003C585.486 55.6107 588.133 56.3327 588.133 56.3327C585.967 56.453 584.884 59.1003 584.884 59.1003V59.1003Z" fill="#5D291B"/>
<path d="M543.852 51.038C543.852 51.038 545.175 48.0297 550.711 47.6687L551.794 50.5567C551.794 50.5567 546.258 50.1957 543.852 51.038V51.038Z" fill="#B2AFAD"/>
<path d="M548.304 53.5651C546.259 53.8057 546.018 59.1005 548.665 59.1005C551.433 59.1005 550.831 53.0837 548.304 53.5651Z" fill="#5D291B"/>
<path d="M548.785 54.1667C547.822 54.4074 547.702 57.0548 549.025 57.0548C550.349 57.0548 550.108 54.0464 548.785 54.1667Z" fill="white"/>
<path d="M556.486 50.677L557.449 47.428C557.449 47.428 563.947 45.8636 568.64 50.5567C568.64 50.5567 562.022 49.1126 556.486 50.677V50.677Z" fill="#B2AFAD"/>
<path d="M558.892 52.3617C557.087 52.6024 556.606 58.2581 559.735 58.3784C562.984 58.4987 562.502 51.8803 558.892 52.3617Z" fill="#5D291B"/>
<path d="M559.494 53.204C558.532 53.3244 558.291 56.2124 559.976 56.3327C561.54 56.3327 561.299 52.9633 559.494 53.204Z" fill="white"/>
<path d="M552.154 61.6274C552.515 62.2291 555.042 63.4324 555.042 63.4324C555.042 63.4324 548.784 63.3121 550.71 61.2664C552.635 59.2207 552.755 53.6854 552.755 53.6854C553.838 59.3411 551.793 61.0258 552.154 61.6274V61.6274Z" fill="#5D291B"/>
<path d="M291.146 492.184C290.304 494.711 218.705 491.342 218.705 488.213C218.705 477.864 233.988 419.141 233.988 419.141L265.876 429.73L250.594 465.349C250.594 465.349 284.648 481.354 287.777 482.918C288.98 483.52 289.823 484.603 290.424 485.926C291.507 487.972 291.748 490.62 291.146 492.184V492.184Z" fill="#DD890E"/>
<path d="M290.424 485.926C288.86 487.25 287.054 488.333 285.61 487.972C281.278 487.13 237.236 481.354 235.551 476.179C233.746 471.005 250.593 465.349 250.593 465.349C250.593 465.349 284.648 481.354 287.776 482.918C288.98 483.52 289.822 484.603 290.424 485.926Z" fill="#EDA024"/>
<path d="M292.952 357.65C288.139 380.875 277.309 418.9 270.811 428.768C261.906 442.125 233.988 438.274 230.86 421.788C227.731 405.302 245.42 351.994 245.42 351.994C245.42 351.994 191.51 294.956 188.983 288.698C186.456 282.321 187.419 253.922 189.585 254.403C192.834 255.005 237.839 249.951 240.968 253.079C242.652 254.764 256.852 275.221 270.329 296.039C283.085 315.774 295.239 335.749 295.479 340.563C295.72 343.21 294.757 349.588 292.952 357.65Z" fill="#25596E"/>
<g style="mix-blend-mode:multiply" opacity="0.5">
<path d="M292.952 357.65C288.139 380.875 277.309 418.9 270.811 428.768C261.906 442.125 233.988 438.274 230.86 421.788C227.731 405.302 245.42 351.994 245.42 351.994C245.42 351.994 191.51 294.956 188.983 288.698C186.456 282.321 187.419 253.922 189.585 254.403C192.834 255.005 237.839 249.951 240.968 253.079C242.652 254.764 256.852 275.221 270.329 296.039C267.923 312.886 265.155 329.732 263.591 335.147C260.101 347.301 256.13 350.791 261.545 358.853C266.719 366.675 283.927 362.463 292.952 357.65Z" fill="#2F6C7F"/>
</g>
<path d="M194.881 510.354C194.881 510.354 121.116 512.4 120.514 507.948C119.912 503.616 142.054 426.842 142.656 424.917L173.942 437.913L155.892 481.594C155.892 481.594 185.856 497.84 191.15 500.367C192.354 500.968 193.196 501.69 193.798 502.653C195.843 505.902 194.881 510.354 194.881 510.354Z" fill="#DD890E"/>
<path d="M193.796 502.653C188.863 503.977 184.17 502.653 176.589 500.968C167.684 498.923 149.273 497.479 144.339 493.387C139.405 489.416 149.273 483.64 155.891 481.594C155.891 481.594 185.854 497.84 191.149 500.367C192.352 500.968 193.195 501.69 193.796 502.653V502.653Z" fill="#EDA024"/>
<path d="M209.321 285.209C206.673 315.292 201.74 363.787 200.416 371.729C198.491 383.041 178.876 436.95 175.026 442.726C171.295 448.382 157.336 450.307 149.033 447.179C140.851 443.93 137.602 436.349 137.602 428.768C137.602 421.187 154.689 369.202 154.689 365.351C154.689 361.501 147.108 296.881 149.033 281.719C149.515 278.109 150.477 274.018 151.56 269.806C155.652 255.366 162.39 239.241 162.39 239.241C162.39 239.241 210.524 258.855 211.126 261.382C211.367 262.104 210.645 271.852 209.321 285.209Z" fill="#25596E"/>
<g style="mix-blend-mode:multiply" opacity="0.5">
<path d="M209.321 285.209C200.296 276.304 187.42 264.872 180.08 263.308C172.258 261.743 159.984 266.196 151.561 269.806C155.652 255.366 162.391 239.241 162.391 239.241C162.391 239.241 210.524 258.855 211.126 261.382C211.367 262.104 210.645 271.852 209.321 285.209V285.209Z" fill="#2F6C7F"/>
</g>
<g style="mix-blend-mode:multiply" opacity="0.5">
<path d="M174.424 415.411C166.963 416.855 157.096 374.136 168.768 375.941C180.441 377.746 190.669 374.376 192.354 374.497C199.814 374.858 181.764 414.087 174.424 415.411Z" fill="#2F6C7F"/>
</g>
<path d="M285.13 236.714C278.632 256.208 255.167 268.843 250.715 256.81C251.678 251.395 251.678 244.295 252.279 234.909C254.325 205.066 245.3 142.973 281.761 144.056C281.761 144.056 286.695 159.459 285.852 193.514C285.612 199.17 285.13 231.54 285.13 236.714V236.714Z" fill="#157546"/>
<path d="M276.106 187.738C270.811 198.568 265.155 212.286 260.342 224.56C253.844 241.648 248.91 255.847 248.91 255.847C248.91 255.847 230.138 268.121 194.038 261.262C157.817 254.523 156.975 236.594 156.975 236.594C169.249 177.87 196.565 124.322 205.469 120.832C205.83 120.712 206.312 120.591 206.673 120.351H206.793C216.66 116.861 241.329 111.205 253.603 116.981C289.342 134.069 288.861 161.746 276.106 187.738V187.738Z" fill="#1A9035"/>
<path d="M260.342 224.56C253.844 241.648 248.91 255.847 248.91 255.847C248.91 255.847 230.138 268.121 194.038 261.262C157.817 254.523 156.975 236.594 156.975 236.594C169.249 177.87 196.565 124.322 205.469 120.832C205.83 120.712 206.312 120.591 206.673 120.351H206.793C209.521 121.955 212.208 124.001 214.855 126.488C215.698 127.33 215.216 151.156 199.453 159.82C183.569 168.484 183.328 176.186 195.843 201.215C208.357 226.245 241.931 214.933 246.744 217.581C251.557 220.348 241.449 227.809 220.271 228.652C201.739 229.374 234.711 240.685 260.342 224.56V224.56Z" fill="#157546"/>
<path d="M169.73 231.54L171.535 231.299C171.535 231.299 182.485 236.714 185.012 239C187.419 241.407 186.577 249.83 186.577 251.996C186.577 254.162 185.133 256.569 180.56 255.005C175.867 253.32 172.858 251.515 172.257 248.988C171.535 246.461 178.153 246.461 178.153 246.461C178.153 246.461 164.194 243.332 169.73 231.54V231.54Z" fill="#D17E46"/>
<path d="M180.319 246.461L172.377 254.162L108.48 198.448C107.156 189.182 115.94 190.867 115.94 190.867L180.319 246.461Z" fill="#533E3D"/>
<path d="M184.771 249.83C184.771 255.245 179.356 260.901 179.356 260.901C179.356 260.901 174.182 265.233 171.895 264.03C169.729 262.947 168.887 260.781 168.165 260.781C167.563 260.781 165.999 261.021 164.796 260.299C163.713 259.698 162.028 257.411 162.028 257.411C162.028 257.411 159.742 257.411 158.177 256.328C156.733 255.245 155.53 252.598 155.53 252.598C155.53 252.598 150.716 252.839 150.476 249.951C150.355 247.785 151.8 237.677 152.522 232.623C152.762 230.938 152.883 229.855 152.883 229.855L150.957 216.738L170.211 215.535L171.414 229.133L171.534 231.299C171.534 231.299 184.771 244.295 184.771 249.83Z" fill="#D17E46"/>
<path d="M171.414 229.133C167.804 231.419 161.426 234.187 152.521 232.623C152.762 230.938 152.882 229.855 152.882 229.855L150.957 216.738L170.211 215.535L171.414 229.133Z" fill="#C66F34"/>
<path d="M170.692 208.796L172.377 225.162C165.156 233.104 151.318 227.569 151.318 227.569L148.791 210.601L170.692 208.796Z" fill="#ACE8CA"/>
<path d="M205.711 154.165C191.632 159.459 171.416 162.588 171.416 162.588L175.748 200.854C176.109 203.742 175.627 206.63 174.544 209.157C172.378 214.332 167.685 218.062 161.789 218.784C161.548 218.784 161.267 218.784 160.947 218.784C152.764 219.506 145.423 213.489 144.1 205.427C141.693 190.265 137.963 161.625 139.407 146.463C139.407 146.463 140.129 146.102 141.452 145.38C151.079 140.567 191.993 120.351 206.914 118.907C224.002 117.222 224.002 130.338 224.002 130.338C226.89 141.409 219.309 149.111 205.711 154.165V154.165Z" fill="#1A9035"/>
<path d="M174.544 209.157C172.378 214.332 167.685 218.062 161.789 218.784C161.548 218.784 161.267 218.784 160.947 218.784C152.764 219.506 145.423 213.489 144.1 205.427C141.693 190.265 137.963 161.625 139.407 146.463C139.407 146.463 140.129 146.102 141.452 145.38C143.137 159.098 145.544 194.838 149.996 204.224C155.411 215.655 154.449 204.946 156.615 204.224C158.901 203.502 157.096 207.713 160.826 212.406C163.594 215.896 169.851 213.61 174.544 209.157V209.157Z" fill="#157546"/>
<path d="M450.47 449.225C450.069 449.465 449.628 449.586 449.146 449.586C448.063 449.586 446.98 448.984 446.499 447.901L439.159 432.257L431.337 436.589L439.279 452.353C440.001 453.677 439.52 455.362 438.196 456.084L437.594 456.445C436.15 457.167 434.465 456.685 433.743 455.241L425.2 439.357L415.573 443.93L423.515 461.378C424.117 462.702 423.515 464.266 422.191 464.988L419.905 466.312C418.461 467.154 416.536 466.553 415.934 465.109L407.872 447.42L397.884 452.955L405.585 471.366C406.187 472.81 405.706 474.254 404.382 474.976L402.216 476.3C400.772 477.022 398.847 476.42 398.245 474.976L389.942 457.768L382 462.1L388.979 480.872C389.46 482.196 388.859 483.64 387.655 484.362L385.008 485.806C383.564 486.649 381.639 486.047 381.037 484.483L373.336 466.071L365.875 469.561L372.854 489.898C373.336 491.221 372.854 492.665 371.651 493.267L369.485 494.47C368.041 495.313 366.116 494.711 365.394 493.147L356.489 471.847C355.045 468.358 356.489 464.387 359.738 462.582L386.452 448.382C388.738 447.299 389.099 444.291 387.174 442.606L176.95 258.134C174.423 255.967 174.423 252.237 176.709 249.951C178.755 248.025 182.004 247.905 184.17 249.83L400.772 438.274C401.855 439.237 403.419 439.357 404.743 438.755L433.503 423.473C437.233 421.427 441.926 423.112 443.611 426.963L451.673 445.614C452.275 446.938 451.794 448.503 450.47 449.225V449.225Z" fill="#533E3D"/>
<path d="M281.882 64.5154C328.812 68.4865 358.775 89.545 358.775 89.545C358.775 89.545 333.144 103.865 287.297 101.217C241.449 98.6904 207.395 68.2458 207.395 68.2458C207.395 68.2458 234.951 60.4241 281.882 64.5154V64.5154Z" fill="#B76800"/>
<path d="M273.097 103.383L265.636 125.645L264.192 129.857C264.192 129.857 257.814 136.716 248.91 130.218C239.884 123.84 242.532 117.463 242.532 117.463L255.167 94.2381L257.453 90.267C266.358 89.0637 273.097 103.383 273.097 103.383V103.383Z" fill="#D17E46"/>
<path d="M273.099 103.383L265.638 125.645C255.169 119.508 254.326 105.068 255.169 94.2381L257.455 90.267C266.36 89.0637 273.099 103.383 273.099 103.383V103.383Z" fill="#C66F34"/>
<path d="M301.858 90.628C301.697 90.8687 301.537 91.1094 301.376 91.35C292.111 106.512 280.077 128.052 268.044 121.313C256.01 114.575 253.002 97.0058 261.064 82.4453C267.322 71.2542 275.384 64.1545 283.567 63.3121C286.054 63.0715 288.541 63.3924 291.028 64.2748C296.322 66.2002 310.161 75.9472 301.858 90.628V90.628Z" fill="#D17E46"/>
<path d="M290.666 94.7194C290.666 94.7194 288.62 104.226 287.537 106.873C286.454 109.4 280.076 105.188 280.076 105.188C280.076 105.188 284.529 106.271 285.852 105.91C287.296 105.67 290.666 94.7194 290.666 94.7194V94.7194Z" fill="#2B2625"/>
<path d="M276.588 83.6486C276.588 83.6486 285.613 83.6486 286.816 89.3043L276.588 83.6486Z" fill="#2B2625"/>
<path d="M281.882 89.906C279.355 89.0637 276.467 94.9601 278.753 96.1634C281.04 97.3668 284.89 90.989 281.882 89.906Z" fill="#2B2625"/>
<path d="M282.122 91.35C281.52 90.7484 280.678 92.1924 281.279 92.794C282.001 93.2754 282.723 91.8314 282.122 91.35Z" fill="white"/>
<path d="M293.314 93.1551C293.074 93.2754 298.489 95.2007 298.489 95.2007C298.489 95.2007 297.526 91.4704 293.314 93.1551Z" fill="#2B2625"/>
<path d="M294.156 96.1634C291.99 95.3211 289.463 100.616 291.509 101.578C293.434 102.661 296.924 97.1261 294.156 96.1634Z" fill="#2B2625"/>
<path d="M294.518 97.3668C293.916 96.8854 293.074 98.0888 293.676 98.5701C294.277 99.0515 294.999 97.7278 294.518 97.3668Z" fill="white"/>
<path d="M268.645 105.67C268.645 105.67 274.661 112.048 282.122 112.649C282.122 112.649 270.69 120.712 268.645 105.67Z" fill="white"/>
<path d="M301.857 90.628C292.953 91.5907 287.658 79.6776 284.77 76.0676C281.641 72.0965 276.347 73.4202 276.467 73.0592C277.309 70.2915 279.596 65.9595 283.567 63.3121C286.054 63.0715 288.54 63.3924 291.027 64.2748C296.322 66.2002 310.16 75.9472 301.857 90.628V90.628Z" fill="#C66F34"/>
<path d="M258.297 77.9929C262.509 53.3244 275.986 60.5444 275.986 60.5444C275.986 60.5444 284.048 48.511 299.933 64.2748C311.605 76.0676 320.75 77.2709 320.75 77.2709C305.468 97.3667 291.028 77.9929 286.214 74.6235C281.521 71.2542 277.671 73.9015 277.671 73.9015C274.061 83.047 269.488 82.0843 267.081 82.8063C264.675 83.5283 260.583 89.6653 260.583 89.6653L258.297 77.9929Z" fill="#2B2625"/>
<path d="M253.844 60.0631C253.844 60.0631 262.989 48.0296 270.089 37.1995C277.189 26.4898 289.703 42.4942 295.239 43.5773C300.774 44.5399 311.484 39.1249 314.853 42.2536C318.223 45.3823 318.223 68.7271 318.223 68.7271C318.223 68.7271 273.699 52.9633 253.844 60.0631V60.0631Z" fill="#FFB03E"/>
<path d="M279.355 58.0174C327.849 60.1834 358.775 89.545 358.775 89.545C358.775 89.545 324.961 72.8185 291.508 68.4865C258.176 64.1545 207.395 68.2458 207.395 68.2458C207.395 68.2458 230.86 55.9717 279.355 58.0174V58.0174Z" fill="#EDA024"/>
<path d="M258.537 93.3957C245.421 94.238 245.421 74.0219 254.687 72.9389C263.832 71.8559 262.749 84.13 262.749 84.13L258.537 93.3957Z" fill="#D17E46"/>
<path d="M259.62 82.686C259.62 82.686 257.935 84.0097 256.371 85.3333C254.927 86.5367 256.852 89.906 256.852 89.906C256.852 89.906 252.159 88.3417 251.076 84.9723C249.993 81.603 251.437 76.4286 253.844 76.1879C256.13 76.0676 257.815 77.8726 257.815 77.8726C259.139 79.4369 259.62 82.686 259.62 82.686V82.686Z" fill="#C66F34"/>
<path d="M253.844 76.1879C258.055 75.9472 260.462 78.4743 260.342 83.408C260.342 83.408 257.574 84.13 256.852 85.574C256.25 87.018 256.972 89.906 256.972 89.906C256.972 89.906 253.844 86.1757 255.047 84.7316C256.25 83.1673 258.898 82.325 258.898 82.325C258.898 82.325 259.379 79.3166 257.333 77.7522C255.408 76.3082 253.844 76.1879 253.844 76.1879V76.1879Z" fill="#2B2625"/>
<path d="M278.271 216.257C281.881 215.655 285.251 218.664 285.371 222.394C285.732 246.581 288.019 257.772 288.741 266.677C289.824 277.989 282.483 285.69 276.827 287.976C271.172 290.263 257.333 289.3 250.956 279.312C246.623 272.453 250.956 253.079 254.205 243.453C259.499 227.689 270.45 217.34 278.271 216.257V216.257Z" fill="#1A9035"/>
<path d="M278.512 284.607L276.467 309.637C276.467 309.637 271.172 315.172 264.313 313.848C257.454 312.525 254.445 305.184 254.445 305.184L257.333 283.043C269.006 277.146 278.512 284.607 278.512 284.607V284.607Z" fill="#ACE8CA"/>
<path d="M275.022 307.711C275.022 307.711 276.466 311.803 276.105 318.662C275.744 325.4 271.652 334.305 259.739 330.936C246.984 327.205 246.623 317.819 248.668 313.848C250.594 309.877 257.573 303.74 257.573 303.74C270.088 301.695 275.022 307.711 275.022 307.711V307.711Z" fill="#C66F34"/>
<path d="M275.264 327.326C271.413 328.529 269.127 332.38 269.127 335.388C269.127 335.549 269.127 335.709 269.127 335.87C269.367 338.637 271.293 340.442 271.293 340.442L269.006 341.285C262.027 342.849 259.861 337.193 259.861 337.193C253.603 336.953 253.964 330.816 253.964 330.816C253.964 330.816 249.031 332.139 247.105 329.973C245.18 327.807 246.504 324.197 246.504 324.197C246.504 324.197 241.811 322.994 240.848 319.865C240.688 319.384 240.647 318.822 240.728 318.18C241.089 315.413 243.977 312.284 245.661 310.238C247.105 308.433 251.558 307.23 254.085 308.193C255.288 308.674 256.13 309.757 256.251 310.96V311.923C262.147 310.599 262.147 316.857 262.147 316.857C269.608 315.533 268.645 321.67 268.645 321.67C274.903 320.106 279.114 326.122 275.264 327.326V327.326Z" fill="#D17E46"/>
<path d="M271.293 340.442L269.006 341.285C262.027 342.849 259.861 337.193 259.861 337.193C253.603 336.953 253.964 330.816 253.964 330.816C253.964 330.816 249.031 332.139 247.105 329.973C245.18 327.807 246.504 324.197 246.504 324.197C246.504 324.197 241.811 322.994 240.848 319.865C240.688 319.384 240.647 318.822 240.728 318.18C241.57 319.865 243.255 321.429 246.624 321.429C246.624 321.429 248.91 318.421 251.076 316.496C251.076 316.496 247.587 322.633 249.392 325.28C251.076 328.048 254.085 326.363 254.085 326.363C254.085 326.363 255.649 323.595 257.815 321.189C257.695 321.67 255.769 326.845 257.695 329.372C259.62 332.019 260.222 331.538 260.222 331.538C260.222 331.538 259.62 329.011 262.388 325.761C262.388 325.761 260.944 336.11 265.998 336.471C267.201 336.471 268.164 336.351 269.127 335.87C269.367 338.637 271.293 340.442 271.293 340.442V340.442Z" fill="#C66F34"/>
<path d="M278.994 324.558C278.914 325.12 278.713 325.601 278.392 326.002C276.347 329.732 271.293 328.409 264.915 327.085C257.936 325.641 257.575 323.114 259.741 321.67C259.821 321.59 259.861 321.55 259.861 321.55C262.147 320.346 266.6 320.106 267.562 320.106C267.322 319.985 266.359 319.384 263.832 316.977C262.99 316.255 262.508 315.413 262.268 314.45C261.425 311.321 263.471 307.832 263.471 307.832C267.322 304.342 273.098 306.388 274.903 308.072C276.587 309.757 280.558 319.143 278.994 324.558V324.558Z" fill="#D17E46"/>
<path d="M263.832 316.977C262.99 316.255 262.508 315.413 262.268 314.45C263.591 315.894 265.757 317.458 268.525 318.18C273.338 319.263 273.459 320.587 273.459 320.587C273.459 320.587 271.533 320.346 267.803 320.106H267.683C267.602 320.106 267.562 320.106 267.562 320.106C267.322 319.985 266.359 319.384 263.832 316.977Z" fill="#C66F34"/>
<path d="M278.392 326.002C276.347 329.732 271.293 328.409 264.915 327.085C257.936 325.641 257.575 323.114 259.741 321.67C261.546 322.151 265.878 322.031 269.247 322.753C272.255 323.234 277.069 324.317 278.392 326.002V326.002Z" fill="#C66F34"/>
</svg>
