<svg width="400" height="266" viewBox="0 0 400 266" fill="none" xmlns="http://www.w3.org/2000/svg">
<path d="M204.61 5H395V89.0294C395 119.428 367.046 145.052 331.278 145.052H157.914C147.935 145.052 140.887 137.992 140.887 130.493V118.606V110.425L133.607 114.157L10.9251 177.033L8.20528 178.427L8.20564 181.484L8.21521 260.625C8.01694 260.591 7.81893 260.553 7.62233 260.512C6.34798 260.248 5.47918 259.916 5 259.629V216.745V190V185.094V184.958V184.823V184.556V184.425V184.294V184.165V184.037V183.784V183.659V183.536V183.414V183.293V183.173V183.054V182.937V182.821V182.706V182.592V182.48V182.368V182.258V182.15V182.042V181.936V181.831V181.727V181.625V181.524V181.424V181.326V181.229V181.133V181.039V180.946V180.854V180.763V180.674V180.587V180.5V180.416V180.332V180.25V180.169V180.09V180.012V179.935V179.86V179.787V179.714V179.644V179.574V179.506V179.44V179.375V179.312V179.25V179.189V179.13V179.073V179.017V178.962V178.909V178.858V178.808V178.759V178.713V178.667V178.624V178.581V178.541V178.502V178.465V178.429V178.395V178.362V178.331V178.302V178.274V178.248V178.223V178.2V178.179V178.16V178.142V178.126V178.111V178.098V178.087V178.078V178.07V178.064V178.06V178.057C5 178.056 5 178.056 0 178.056H5C5 178.017 5.00633 177.938 5.10689 177.806C5.21803 177.659 5.43824 177.467 5.79082 177.335L6.15172 177.199L6.48758 177.01C6.49206 177.007 6.49658 177.005 6.50114 177.002C6.51825 176.993 6.536 176.983 6.55439 176.974L138.168 109.519L140.887 108.126V105.07V61.0224C140.887 30.6241 168.842 5 204.61 5Z" stroke="#4DC82F" stroke-width="10"/>
</svg>
