<svg width="400" height="266" viewBox="0 0 400 266" fill="none" xmlns="http://www.w3.org/2000/svg">
<path d="M195.39 5H5V89.0294C5 119.428 32.9544 145.052 68.7224 145.052H242.086C252.065 145.052 259.113 137.992 259.113 130.493V118.606V110.425L266.393 114.157L389.075 177.033L391.795 178.427L391.794 181.484L391.785 260.625C391.983 260.591 392.181 260.553 392.378 260.512C393.652 260.248 394.521 259.916 395 259.629V216.745V190V185.094V184.958V184.823V184.556V184.425V184.294V184.165V184.037V183.784V183.659V183.536V183.414V183.293V183.173V183.054V182.937V182.821V182.706V182.592V182.48V182.368V182.258V182.15V182.042V181.936V181.831V181.727V181.625V181.524V181.424V181.326V181.229V181.133V181.039V180.946V180.854V180.763V180.674V180.587V180.5V180.416V180.332V180.25V180.169V180.09V180.012V179.935V179.86V179.787V179.714V179.644V179.574V179.506V179.44V179.375V179.312V179.25V179.189V179.13V179.073V179.017V178.962V178.909V178.858V178.808V178.759V178.713V178.667V178.624V178.581V178.541V178.502V178.465V178.429V178.395V178.362V178.331V178.302V178.274V178.248V178.223V178.2V178.179V178.16V178.142V178.126V178.111V178.098V178.087V178.078V178.07V178.064V178.06V178.057C395 178.056 395 178.056 400 178.056H395C395 178.017 394.994 177.938 394.893 177.806C394.782 177.659 394.562 177.467 394.209 177.335L393.848 177.199L393.512 177.01C393.508 177.007 393.503 177.005 393.499 177.002C393.482 176.993 393.464 176.983 393.446 176.974L261.832 109.519L259.113 108.126V105.07V61.0224C259.113 30.6241 231.158 5 195.39 5Z" stroke="#1A9035" stroke-width="10"/>
</svg>
