<svg width="54" height="54" viewBox="0 0 54 54" fill="none" xmlns="http://www.w3.org/2000/svg">
<circle cx="27" cy="27" r="27" fill="#F2F2F2"/>
<path d="M14.81 22.75V20.878H18.554V34H16.484V22.75H14.81ZM28.303 17.008L23.407 37.15H21.391L26.269 17.008H28.303ZM31.7531 31.21C32.9051 30.214 33.8111 29.398 34.4711 28.762C35.1431 28.114 35.7011 27.442 36.1451 26.746C36.5891 26.05 36.8111 25.354 36.8111 24.658C36.8111 23.938 36.6371 23.374 36.2891 22.966C35.9531 22.558 35.4191 22.354 34.6871 22.354C33.9791 22.354 33.4271 22.582 33.0311 23.038C32.6471 23.482 32.4431 24.082 32.4191 24.838H30.4391C30.4751 23.47 30.8831 22.426 31.6631 21.706C32.4551 20.974 33.4571 20.608 34.6691 20.608C35.9771 20.608 36.9971 20.968 37.7291 21.688C38.4731 22.408 38.8451 23.368 38.8451 24.568C38.8451 25.432 38.6231 26.266 38.1791 27.07C37.7471 27.862 37.2251 28.576 36.6131 29.212C36.0131 29.836 35.2451 30.562 34.3091 31.39L33.4991 32.11H39.2051V33.82H30.4571V32.326L31.7531 31.21Z" fill="#777777"/>
</svg>
