<svg width="54" height="54" viewBox="0 0 54 54" fill="none" xmlns="http://www.w3.org/2000/svg">
<circle cx="27" cy="27" r="27" fill="#F2F2F2"/>
<path d="M14.214 31.21C15.366 30.214 16.272 29.398 16.932 28.762C17.604 28.114 18.162 27.442 18.606 26.746C19.05 26.05 19.272 25.354 19.272 24.658C19.272 23.938 19.098 23.374 18.75 22.966C18.414 22.558 17.88 22.354 17.148 22.354C16.44 22.354 15.888 22.582 15.492 23.038C15.108 23.482 14.904 24.082 14.88 24.838H12.9C12.936 23.47 13.344 22.426 14.124 21.706C14.916 20.974 15.918 20.608 17.13 20.608C18.438 20.608 19.458 20.968 20.19 21.688C20.934 22.408 21.306 23.368 21.306 24.568C21.306 25.432 21.084 26.266 20.64 27.07C20.208 27.862 19.686 28.576 19.074 29.212C18.474 29.836 17.706 30.562 16.77 31.39L15.96 32.11H21.666V33.82H12.918V32.326L14.214 31.21ZM30.3987 17.008L25.5027 37.15H23.4867L28.3647 17.008H30.3987ZM33.8488 31.21C35.0008 30.214 35.9068 29.398 36.5668 28.762C37.2388 28.114 37.7968 27.442 38.2408 26.746C38.6848 26.05 38.9068 25.354 38.9068 24.658C38.9068 23.938 38.7328 23.374 38.3848 22.966C38.0488 22.558 37.5148 22.354 36.7828 22.354C36.0748 22.354 35.5228 22.582 35.1268 23.038C34.7428 23.482 34.5388 24.082 34.5148 24.838H32.5348C32.5708 23.47 32.9788 22.426 33.7588 21.706C34.5508 20.974 35.5528 20.608 36.7648 20.608C38.0728 20.608 39.0928 20.968 39.8248 21.688C40.5688 22.408 40.9408 23.368 40.9408 24.568C40.9408 25.432 40.7188 26.266 40.2748 27.07C39.8428 27.862 39.3208 28.576 38.7088 29.212C38.1088 29.836 37.3408 30.562 36.4048 31.39L35.5948 32.11H41.3008V33.82H32.5528V32.326L33.8488 31.21Z" fill="#777777"/>
</svg>
