<svg width="38" height="30" viewBox="0 0 38 30" fill="none" xmlns="http://www.w3.org/2000/svg">
<path d="M20.707 7.57812C20.707 11.6776 17.3846 15 13.2852 15C9.18573 15 5.86328 11.6776 5.86328 7.57812C5.86328 3.4787 9.18573 0.15625 13.2852 0.15625C17.3846 0.15625 20.707 3.4787 20.707 7.57812ZM0.296875 28.1216C0.296875 22.4103 4.92395 17.7832 10.6353 17.7832H15.935C21.6464 17.7832 26.2734 22.4103 26.2734 28.1216C26.2734 29.0726 25.5023 29.8438 24.5513 29.8438H2.01898C1.06805 29.8438 0.296875 29.0726 0.296875 28.1216ZM35.6262 29.8438H27.6302C27.9434 29.2987 28.1289 28.6667 28.1289 27.9883V27.5244C28.1289 24.0048 26.5576 20.8447 24.0817 18.7225C24.2208 18.7167 24.3542 18.7109 24.4933 18.7109H28.0535C33.2198 18.7109 37.4062 22.8973 37.4062 28.0637C37.4062 29.0494 36.6061 29.8438 35.6262 29.8438ZM25.3457 15C23.5482 15 21.9247 14.2694 20.7476 13.0923C21.8899 11.55 22.5625 9.64233 22.5625 7.57812C22.5625 6.02417 22.1798 4.55719 21.5014 3.26996C22.5799 2.48138 23.9077 2.01172 25.3457 2.01172C28.9349 2.01172 31.8398 4.91669 31.8398 8.50586C31.8398 12.095 28.9349 15 25.3457 15Z" fill="#686868"/>
</svg>
