<svg width="130" height="130" viewBox="0 0 130 130" fill="none" xmlns="http://www.w3.org/2000/svg">
<circle cx="65" cy="65" r="65" fill="#F2F2F2"/>
<path d="M40.927 94.9534C40.927 94.9534 36.0156 94.9534 36.0156 90.042C36.0156 85.1307 40.927 70.3965 65.4839 70.3965C90.0408 70.3965 94.9522 85.1307 94.9522 90.042C94.9522 94.9534 90.0408 94.9534 90.0408 94.9534H40.927ZM65.4839 65.4851C69.3916 65.4851 73.1393 63.9328 75.9025 61.1696C78.6657 58.4064 80.2181 54.6587 80.2181 50.751C80.2181 46.8433 78.6657 43.0956 75.9025 40.3324C73.1393 37.5692 69.3916 36.0168 65.4839 36.0168C61.5762 36.0168 57.8285 37.5692 55.0653 40.3324C52.3021 43.0956 50.7498 46.8433 50.7498 50.751C50.7498 54.6587 52.3021 58.4064 55.0653 61.1696C57.8285 63.9328 61.5762 65.4851 65.4839 65.4851Z" fill="#A4A4A4"/>
</svg>
