<svg width="30" height="878" viewBox="0 0 30 878" fill="none" xmlns="http://www.w3.org/2000/svg">
<path d="M14.5 -1.09279e-07C16.6591 146.155 16.2046 292.524 17 438.893C16.2046 585.262 16.6591 731.631 14.5 878C12.3409 731.631 12.9091 585.262 12 438.893C12.9091 292.524 12.3409 146.155 14.5 -1.09279e-07Z" fill="#1A9035"/>
<path d="M-6.77526e-07 438.5L14.9547 423L30 438.5L14.9547 454L-6.77526e-07 438.5Z" fill="#1A9035"/>
<path d="M10 402.5L14.9514 398L20 402.5L14.9514 407L10 402.5Z" fill="#1A9035"/>
<path d="M8 415.5L14.951 409L22 415.5L14.951 422L8 415.5Z" fill="#1A9035"/>
<path d="M14.9514 471L20 475.5L14.9514 480L10 475.5L14.9514 471Z" fill="#1A9035"/>
<path d="M14.951 455L22 462.049L14.951 469L8 462.049L14.951 455Z" fill="#1A9035"/>
</svg>
