<svg width="1182" height="36" viewBox="0 0 1182 36" fill="none" xmlns="http://www.w3.org/2000/svg">
<path d="M1182 18.5C985.24 20.6591 788.192 20.2045 591.144 21C394.096 20.2045 197.048 20.6591 0 18.5C197.048 16.3409 394.096 16.9091 591.144 16C788.192 16.9091 985.24 16.3409 1182 18.5Z" fill="#1A9035"/>
<path d="M591 0L609 17.9456L591 36L573 17.9456L591 0Z" fill="#1A9035"/>
<path d="M633.5 12L639 17.9417L633.5 24L628 17.9417L633.5 12Z" fill="#1A9035"/>
<path d="M618.5 10L626 17.944L618.5 26L611 17.944L618.5 10Z" fill="#1A9035"/>
<path d="M553 17.9417L547.5 24L542 17.9417L547.5 12L553 17.9417Z" fill="#1A9035"/>
<path d="M571 17.944L562.944 26L555 17.944L562.944 10L571 17.944Z" fill="#1A9035"/>
</svg>
