<svg width="129" height="129" viewBox="0 0 129 129" fill="none" xmlns="http://www.w3.org/2000/svg">
<path d="M52.7148 2.04686C56.4834 1.34895 60.3917 1 64.3 1C99.265 1 127.6 29.3349 127.6 64.3C127.6 99.265 99.265 127.6 64.3 127.6C29.335 127.6 1 99.265 1 64.3C1 50.97 5.18743 38.5473 12.2363 28.3579" stroke="#306F54" stroke-width="2" stroke-linecap="round" stroke-linejoin="round"/>
<path d="M22.9844 16.4238C20.8442 18.2384 18.8435 20.1925 16.9824 22.2862" stroke="white" stroke-width="2" stroke-linecap="round" stroke-linejoin="round"/>
<path d="M64.2998 118.039C34.6388 118.039 10.6309 93.9612 10.6309 64.3002C10.6309 34.6393 34.6388 10.6313 64.2998 10.6313C93.9607 10.6313 118.038 34.6393 118.038 64.3002C118.038 93.9612 93.9607 118.039 64.2998 118.039Z" fill="#1A9035"/>
<path d="M88 47L61.3277 78L45 62.7752" stroke="white" stroke-width="12" stroke-linecap="round" stroke-linejoin="round"/>
</svg>
